<svg width="21" height="23" viewBox="0 0 21 23" fill="none" xmlns="http://www.w3.org/2000/svg">
<path d="M7.73743 2.1926C8.05906 2.19256 8.37683 2.26207 8.66856 2.39628C8.96028 2.53049 9.21894 2.72617 9.42646 2.96965C9.63399 3.21314 9.78539 3.49857 9.8701 3.80601C9.95481 4.11346 9.97078 4.43553 9.91691 4.74972L12.0975 5.11111C12.1814 4.61761 12.1795 4.11353 12.092 3.62065C12.5102 3.36112 13.0041 3.24774 13.4949 3.29857C13.9857 3.34939 14.4452 3.56149 14.8003 3.90109C15.1554 4.24069 15.3855 4.68825 15.4541 5.17248C15.5227 5.65672 15.4258 6.14977 15.1788 6.57311H3.31657C3.14502 6.57292 2.97587 6.53317 2.82251 6.457C2.66916 6.38083 2.5358 6.27034 2.43299 6.13426C2.33019 5.99819 2.26077 5.84027 2.23022 5.673C2.19967 5.50574 2.20884 5.33373 2.25699 5.17058C2.30514 5.00743 2.39096 4.85764 2.50765 4.73304C2.62434 4.60845 2.7687 4.51248 2.9293 4.45273C3.0899 4.39299 3.26233 4.37111 3.43294 4.38882C3.60356 4.40653 3.76766 4.46336 3.91228 4.55479C4.06115 4.64927 4.23072 4.70699 4.40676 4.7231C4.5828 4.7392 4.76017 4.71323 4.92398 4.64736C5.08779 4.58149 5.23327 4.47764 5.34819 4.34453C5.46312 4.21142 5.54415 4.05294 5.58447 3.88238C5.69858 3.4015 5.97332 2.97292 6.36413 2.66619C6.75494 2.35946 7.23887 2.19257 7.73743 2.1926ZM9.41293 0.327604C8.41419 -0.0783742 7.30001 -0.108029 6.28071 0.244238C5.26141 0.596505 4.40752 1.30632 3.88023 2.23969C3.17069 2.1182 2.44051 2.22889 1.80008 2.55502C1.15965 2.88115 0.643773 3.40499 0.330422 4.04738C0.0170709 4.68976 -0.0767184 5.41576 0.0632308 6.11563C0.20318 6.81551 0.56926 7.45123 1.10614 7.92668V20.8097C1.10614 21.3906 1.33902 21.9477 1.75356 22.3585C2.16809 22.7692 2.73032 23 3.31657 23H14.3687C14.955 23 15.5172 22.7692 15.9317 22.3585C16.3463 21.9477 16.5791 21.3906 16.5791 20.8097H18.7896C19.3758 20.8097 19.938 20.579 20.3526 20.1682C20.7671 19.7575 21 19.2004 21 18.6195V10.9536C21 10.3727 20.7671 9.81562 20.3526 9.40487C19.938 8.99412 19.3758 8.76336 18.7896 8.76336H16.5791V8.37569C17.2662 7.60488 17.6577 6.61912 17.685 5.59107C17.7123 4.56302 17.3737 3.55823 16.7285 2.75269C16.0833 1.94715 15.1726 1.39222 14.156 1.18511C13.1394 0.977991 12.0816 1.13189 11.168 1.61985C10.7011 1.05062 10.0977 0.606348 9.41293 0.327604ZM16.5791 10.9536H18.7896V18.6195H16.5791V10.9536ZM14.3687 8.76336V20.8097H3.31657V8.76336H14.3687ZM5.527 10.9536V18.6195H7.73743V10.9536H5.527ZM12.1583 10.9536V18.6195H9.94785V10.9536H12.1583Z" fill="#AFAFAF"/>
</svg>
