<svg width="23" height="20" viewBox="0 0 23 20" fill="none" xmlns="http://www.w3.org/2000/svg">
<path d="M20.3167 1.25C20.0611 0.5 19.2944 0 18.5278 0H4.47222C3.57778 0 2.93889 0.5 2.68333 1.25L0 8.75V18.75C0 19.375 0.638889 20 1.27778 20H2.55556C3.32222 20 3.83333 19.375 3.83333 18.75V17.5H19.1667V18.75C19.1667 19.375 19.8056 20 20.4444 20H21.7222C22.3611 20 23 19.375 23 18.75V8.75L20.3167 1.25ZM4.85556 2.5H18.0167L19.4222 6.25H3.57778L4.85556 2.5ZM20.4444 15H2.55556V8.75H20.4444V15ZM5.75 10C6.77222 10 7.66667 10.875 7.66667 11.875C7.66667 12.875 6.77222 13.75 5.75 13.75C4.72778 13.75 3.83333 12.875 3.83333 11.875C3.83333 10.875 4.72778 10 5.75 10ZM17.25 10C18.2722 10 19.1667 10.875 19.1667 11.875C19.1667 12.875 18.2722 13.75 17.25 13.75C16.2278 13.75 15.3333 12.875 15.3333 11.875C15.3333 10.875 16.2278 10 17.25 10Z" fill="#AFAFAF"/>
</svg>
