<svg width="26" height="26" viewBox="0 0 26 26" fill="none" xmlns="http://www.w3.org/2000/svg">
<path d="M7.94037 22.7398C6.50291 22.2075 5.22371 21.3164 4.22305 20.1503C3.22238 18.9842 2.53313 17.5814 2.22009 16.0738L0.0619899 5.86563C-0.250025 4.454 0.647018 3.06851 2.05109 2.76789L14.7527 0.0622661L14.7917 0.0491955C16.1828 -0.225288 17.5478 0.676586 17.8338 2.06207L18.2889 4.24487L23.9441 5.46044H23.9831C25.3482 5.77413 26.2322 7.15962 25.9462 8.54511L23.7881 18.7663C23.539 19.9405 23.0623 21.0538 22.3852 22.0427C21.7081 23.0316 20.8438 23.8766 19.8418 24.5297C18.8397 25.1827 17.7196 25.6308 16.5452 25.8485C15.3709 26.0662 14.1654 26.0491 12.9976 25.7983C11.0165 25.3827 9.23393 24.3046 7.94037 22.7398ZM23.3981 8.00921L10.6965 5.29052L8.5384 15.5118V15.551C7.79736 19.0539 10.0465 22.5045 13.5436 23.2496C17.0408 23.9946 20.499 21.7464 21.24 18.2304L23.3981 8.00921ZM18.1979 18.884C17.7872 19.583 17.1683 20.1346 16.4287 20.4606C15.6891 20.7866 14.8663 20.8707 14.0767 20.7008C13.2895 20.5314 12.5745 20.1192 12.0315 19.5217C11.4884 18.9243 11.1445 18.1712 11.0475 17.3678L18.1979 18.884ZM8.40839 4.07495L2.59711 5.32973L4.75522 15.5379L4.76822 15.5771C4.96323 16.5051 5.35324 17.3416 5.88627 18.0605C5.75626 17.0541 5.78226 16.0084 6.00328 14.9628L6.5623 12.3487C5.97727 12.2441 5.47025 11.9173 5.19724 11.4468C5.27524 10.6495 5.92527 9.94366 6.82231 9.73453H7.14733L8.16138 4.75462C8.21338 4.50628 8.29139 4.28408 8.40839 4.07495ZM16.9368 13.3028C17.3528 12.6101 18.2369 12.2441 19.1339 12.4402C20.031 12.6231 20.681 13.3159 20.798 14.1263C20.369 14.8059 19.4979 15.1719 18.5879 14.9628C17.6908 14.7929 17.0408 14.1001 16.9368 13.3028ZM10.5925 11.9435C11.0085 11.2507 11.8796 10.8847 12.7766 11.0808C13.6476 11.2638 14.3367 11.9696 14.4407 12.7669C14.0117 13.4466 13.1406 13.8256 12.2436 13.6557C11.3465 13.4335 10.6965 12.7408 10.5925 11.9435ZM12.9586 3.10772L15.5067 3.65669L15.2987 2.61104L12.9586 3.10772Z" fill="#AFAFAF"/>
</svg>
