<svg width="25" height="20" viewBox="0 0 25 20" fill="none" xmlns="http://www.w3.org/2000/svg">
<path d="M12.5 0C11.3397 0 10.2269 0.460936 9.40641 1.28141C8.58594 2.10188 8.125 3.21468 8.125 4.375H10.625C10.625 3.87772 10.8225 3.40081 11.1742 3.04917C11.5258 2.69754 12.0027 2.5 12.5 2.5C12.9973 2.5 13.4742 2.69754 13.8258 3.04917C14.1775 3.40081 14.375 3.87772 14.375 4.375C14.375 4.87228 14.1775 5.34919 13.8258 5.70083C13.4742 6.05246 12.9973 6.25 12.5 6.25C11.8125 6.25 11.25 6.8125 11.25 7.5V9.6875L0.5 17.75C0.290118 17.9074 0.135083 18.1269 0.0568581 18.3773C-0.0213671 18.6277 -0.0188174 18.8964 0.0641459 19.1453C0.147109 19.3942 0.30628 19.6107 0.519112 19.7641C0.731944 19.9175 0.987647 20 1.25 20H23.75C24.0124 20 24.2681 19.9175 24.4809 19.7641C24.6937 19.6107 24.8529 19.3942 24.9359 19.1453C25.0188 18.8964 25.0214 18.6277 24.9431 18.3773C24.8649 18.1269 24.7099 17.9074 24.5 17.75L13.75 9.6875V8.5625C14.652 8.29356 15.4433 7.74087 16.0063 6.98649C16.5692 6.23211 16.8739 5.31628 16.875 4.375C16.875 3.21468 16.4141 2.10188 15.5936 1.28141C14.7731 0.460936 13.6603 0 12.5 0ZM12.5 11.875L20 17.5H5L12.5 11.875Z" fill="#AFAFAF"/>
</svg>
