<svg width="23" height="23" viewBox="0 0 23 23" fill="none" xmlns="http://www.w3.org/2000/svg">
<path d="M2.51367 5.12965C2.69101 5.15076 2.87256 5.16448 3.05623 5.1666C3.89012 5.1761 4.68073 4.97871 5.16734 4.63882C5.65395 4.30104 6.44456 4.10365 7.27845 4.11104C8.11234 4.10365 8.90295 4.30104 9.38956 4.63882C9.87617 4.97871 10.6668 5.1761 11.5007 5.1666C12.3346 5.1761 13.1252 4.97871 13.6118 4.63882C14.0984 4.30104 14.889 4.10365 15.7229 4.11104C16.5568 4.10365 17.3474 4.30104 17.834 4.63882C18.3206 4.97871 19.1112 5.1761 19.9451 5.1666C20.1246 5.1666 20.303 5.15182 20.4761 5.13071" stroke="#AFAFAF" stroke-width="2.2" stroke-linecap="round" stroke-linejoin="round"/>
<path d="M2 2L3.81661 12.9028C3.89882 13.3958 4.15323 13.8436 4.53458 14.1665C4.91592 14.4895 5.39948 14.6667 5.89922 14.6667H17.1008C17.6005 14.6667 18.0841 14.4895 18.4654 14.1665C18.8468 13.8436 19.1012 13.3958 19.1834 12.9028L21 2M4.11111 17.8333H18.8889M4.11111 21H18.8889" stroke="#AFAFAF" stroke-width="2.2" stroke-linecap="round" stroke-linejoin="round"/>
</svg>
