<svg width="33" height="33" viewBox="0 0 33 33" fill="none" xmlns="http://www.w3.org/2000/svg">
<circle cx="16.5" cy="16.5" r="16.5" fill="#D9D9D9" fill-opacity="0.38"/>
<path d="M23.6678 9.34362C23.5625 9.23815 23.4375 9.15447 23.2998 9.09738C23.1622 9.04028 23.0147 9.0109 22.8657 9.0109C22.7166 9.0109 22.5691 9.04028 22.4315 9.09738C22.2938 9.15447 22.1688 9.23815 22.0635 9.34362L16.5 14.8958L10.9365 9.33224C10.8311 9.22691 10.7061 9.14335 10.5684 9.08635C10.4308 9.02934 10.2833 9 10.1343 9C9.98538 9 9.83788 9.02934 9.70025 9.08635C9.56263 9.14335 9.43758 9.22691 9.33224 9.33224C9.22691 9.43758 9.14335 9.56263 9.08635 9.70025C9.02934 9.83788 9 9.98538 9 10.1343C9 10.2833 9.02934 10.4308 9.08635 10.5684C9.14335 10.7061 9.22691 10.8311 9.33224 10.9365L14.8958 16.5L9.33224 22.0635C9.22691 22.1689 9.14335 22.2939 9.08635 22.4316C9.02934 22.5692 9 22.7167 9 22.8657C9 23.0146 9.02934 23.1621 9.08635 23.2997C9.14335 23.4374 9.22691 23.5624 9.33224 23.6678C9.43758 23.7731 9.56263 23.8566 9.70025 23.9137C9.83788 23.9707 9.98538 24 10.1343 24C10.2833 24 10.4308 23.9707 10.5684 23.9137C10.7061 23.8566 10.8311 23.7731 10.9365 23.6678L16.5 18.1042L22.0635 23.6678C22.1689 23.7731 22.2939 23.8566 22.4316 23.9137C22.5692 23.9707 22.7167 24 22.8657 24C23.0146 24 23.1621 23.9707 23.2997 23.9137C23.4374 23.8566 23.5624 23.7731 23.6678 23.6678C23.7731 23.5624 23.8566 23.4374 23.9137 23.2997C23.9707 23.1621 24 23.0146 24 22.8657C24 22.7167 23.9707 22.5692 23.9137 22.4316C23.8566 22.2939 23.7731 22.1689 23.6678 22.0635L18.1042 16.5L23.6678 10.9365C24.1001 10.5041 24.1001 9.77596 23.6678 9.34362Z" fill="#717171"/>
</svg>
