<svg width="37" height="19" viewBox="0 0 37 19" fill="none" xmlns="http://www.w3.org/2000/svg">
<path d="M11.6 2H7.4C7.16131 2 6.93239 2.09482 6.7636 2.2636C6.59482 2.43239 6.5 2.66131 6.5 2.9V16.1C6.5 16.2182 6.52328 16.3352 6.56851 16.4444C6.61374 16.5536 6.68003 16.6528 6.7636 16.7364C6.84718 16.82 6.94639 16.8863 7.05558 16.9315C7.16478 16.9767 7.28181 17 7.4 17H11.6C11.7182 17 11.8352 16.9767 11.9444 16.9315C12.0536 16.8863 12.1528 16.82 12.2364 16.7364C12.32 16.6528 12.3863 16.5536 12.4315 16.4444C12.4767 16.3352 12.5 16.2182 12.5 16.1V2.9C12.5 2.66131 12.4052 2.43239 12.2364 2.2636C12.0676 2.09482 11.8387 2 11.6 2ZM29.6 2H25.4C25.1613 2 24.9324 2.09482 24.7636 2.2636C24.5948 2.43239 24.5 2.66131 24.5 2.9V16.1C24.5 16.2182 24.5233 16.3352 24.5685 16.4444C24.6137 16.5536 24.68 16.6528 24.7636 16.7364C24.8472 16.82 24.9464 16.8863 25.0556 16.9315C25.1648 16.9767 25.2818 17 25.4 17H29.6C29.7182 17 29.8352 16.9767 29.9444 16.9315C30.0536 16.8863 30.1528 16.82 30.2364 16.7364C30.32 16.6528 30.3863 16.5536 30.4315 16.4444C30.4767 16.3352 30.5 16.2182 30.5 16.1V2.9C30.5 2.66131 30.4052 2.43239 30.2364 2.2636C30.0676 2.09482 29.8387 2 29.6 2Z" stroke="#AFAFAF" stroke-width="2.5" stroke-linecap="round" stroke-linejoin="round"/>
<path d="M12.5 9.5H24.5M2 13.1V5.9C2 5.66131 2.09482 5.43239 2.2636 5.2636C2.43239 5.09482 2.66131 5 2.9 5H5.6C5.83869 5 6.06761 5.09482 6.2364 5.2636C6.40518 5.43239 6.5 5.66131 6.5 5.9V13.1C6.5 13.3387 6.40518 13.5676 6.2364 13.7364C6.06761 13.9052 5.83869 14 5.6 14H2.9C2.66131 14 2.43239 13.9052 2.2636 13.7364C2.09482 13.5676 2 13.3387 2 13.1ZM35 13.1V5.9C35 5.66131 34.9052 5.43239 34.7364 5.2636C34.5676 5.09482 34.3387 5 34.1 5H31.4C31.1613 5 30.9324 5.09482 30.7636 5.2636C30.5948 5.43239 30.5 5.66131 30.5 5.9V13.1C30.5 13.3387 30.5948 13.5676 30.7636 13.7364C30.9324 13.9052 31.1613 14 31.4 14H34.1C34.3387 14 34.5676 13.9052 34.7364 13.7364C34.9052 13.5676 35 13.3387 35 13.1Z" stroke="#AFAFAF" stroke-width="2.5" stroke-linecap="round" stroke-linejoin="round"/>
</svg>
