<svg width="30" height="25" viewBox="0 0 30 25" fill="none" xmlns="http://www.w3.org/2000/svg">
<path d="M2 23H4.6M4.6 23H12.4M4.6 23V12.0159C4.6 11.3297 4.6 10.9866 4.6845 10.6666C4.75933 10.3838 4.88243 10.1157 5.0485 9.8738C5.237 9.60009 5.4983 9.37265 6.0209 8.92161L12.2622 3.52207C13.232 2.68426 13.7169 2.26535 14.2616 2.10601C14.7426 1.96466 15.2561 1.96466 15.7371 2.10601C16.2831 2.26535 16.7693 2.68426 17.7391 3.52464L23.9791 8.92161C24.5017 9.37393 24.763 9.60009 24.9515 9.87251C25.1166 10.1167 25.2401 10.3839 25.3155 10.6666C25.4 10.9866 25.4 11.3297 25.4 12.0159V23M12.4 23H17.6M12.4 23V17.86C12.4 17.1784 12.6739 16.5247 13.1615 16.0428C13.6491 15.5608 14.3104 15.29 15 15.29C15.6896 15.29 16.3509 15.5608 16.8385 16.0428C17.3261 16.5247 17.6 17.1784 17.6 17.86V23M25.4 23H17.6M25.4 23H28" stroke="#AFAFAF" stroke-width="2.5" stroke-linecap="round" stroke-linejoin="round"/>
</svg>
