<svg width="26" height="28" viewBox="0 0 26 28" fill="none" xmlns="http://www.w3.org/2000/svg">
<path d="M2 25.7838V8.54054C2 7.64865 2.59459 5.44865 4.97297 3.78378L3.48649 2C4.47768 2 6.81622 2.35676 8.24324 3.78378C10.7209 3.58578 16.2703 4.97297 14.1892 8.54054C13.66 9.33432 12.7027 9.72973 10.9189 9.72973" stroke="#AFAFAF" stroke-width="3" stroke-linecap="round" stroke-linejoin="round"/>
<path d="M9.73047 13.8921C12.1088 13.8921 16.8656 16.8651 16.8656 22.2164C16.8656 23.4056 17.4602 25.1198 19.9183 24.8332C21.6224 24.6346 23.1844 23.4365 24.0007 20.9541" stroke="#AFAFAF" stroke-width="3" stroke-linecap="round" stroke-linejoin="round"/>
<path d="M8.54102 25.784C8.54102 23.4056 9.7302 20.4326 14.487 20.4326H16.2707" stroke="#AFAFAF" stroke-width="3" stroke-linecap="round" stroke-linejoin="round"/>
</svg>
