<svg width="30" height="30" viewBox="0 0 30 30" fill="none" xmlns="http://www.w3.org/2000/svg">
<path d="M3.4784 2.91357L24.8609 24.2961C25.2666 24.7018 25.4946 25.2521 25.4946 25.8259C25.4946 26.3997 25.2666 26.95 24.8609 27.3558C24.4551 27.7614 23.9048 27.9892 23.3311 27.9892C22.7573 27.9892 22.207 27.7614 21.8012 27.3558L16.5779 22.0425C16.2361 21.6954 16.0443 21.2279 16.044 20.7407V20.4198C16.044 20.1738 15.9952 19.9303 15.9003 19.7033C15.8055 19.4764 15.6665 19.2705 15.4914 19.0977L14.8171 18.475C14.5881 18.2637 14.3097 18.1135 14.0075 18.038C13.7053 17.9626 13.3889 17.9643 13.0876 18.0432C12.6123 18.1672 12.1129 18.1648 11.6389 18.0362C11.1649 17.9077 10.7328 17.6574 10.3854 17.3102L5.42728 12.3515C2.48597 9.41022 1.40359 4.96866 3.4784 2.91357Z" stroke="#1677BD" stroke-width="2.25" stroke-linejoin="round"/>
<path d="M23.3571 2L18.8737 6.48334C18.5287 6.82827 18.255 7.23777 18.0683 7.68847C17.8816 8.13918 17.7855 8.62224 17.7855 9.11009V9.97252C17.7855 10.0945 17.7615 10.2154 17.7148 10.3281C17.6681 10.4408 17.5996 10.5432 17.5133 10.6295L16.8569 11.2859M18.7141 13.1431L19.3705 12.4867C19.4568 12.4004 19.5592 12.3319 19.6719 12.2852C19.7846 12.2385 19.9055 12.2145 20.0275 12.2145H20.8899C21.3778 12.2145 21.8608 12.1184 22.3115 11.9317C22.7622 11.745 23.1717 11.4713 23.5167 11.1263L28 6.64295M25.6785 4.32147L21.0356 8.96442M11.7497 21.5004L5.96226 27.3203C5.52692 27.7555 4.93655 28 4.32098 28C3.70541 28 3.11504 27.7555 2.6797 27.3203C2.24449 26.885 2 26.2946 2 25.679C2 25.0635 2.24449 24.4731 2.6797 24.0377L7.57104 19.1789" stroke="#1677BD" stroke-width="2.25" stroke-linecap="round" stroke-linejoin="round"/>
</svg>
