<svg width="43" height="43" viewBox="0 0 43 43" fill="none" xmlns="http://www.w3.org/2000/svg">
<circle cx="21.5" cy="21.5" r="21.5" fill="#1677BD"/>
<path d="M30 29L26.1396 25.1396M26.1396 25.1396C26.7999 24.4793 27.3237 23.6953 27.6811 22.8326C28.0385 21.9698 28.2224 21.0451 28.2224 20.1112C28.2224 19.1774 28.0385 18.2526 27.6811 17.3899C27.3237 16.5271 26.7999 15.7432 26.1396 15.0828C25.4793 14.4225 24.6953 13.8987 23.8326 13.5413C22.9698 13.1839 22.0451 13 21.1112 13C20.1774 13 19.2526 13.1839 18.3899 13.5413C17.5271 13.8987 16.7432 14.4225 16.0828 15.0828C14.7492 16.4164 14 18.2252 14 20.1112C14 21.9972 14.7492 23.806 16.0828 25.1396C17.4164 26.4732 19.2252 27.2224 21.1112 27.2224C22.9972 27.2224 24.806 26.4732 26.1396 25.1396Z" stroke="white" stroke-width="2" stroke-linecap="round" stroke-linejoin="round"/>
</svg>
